<svg width="512" height="512" viewBox="0 0 512 512" fill="none" xmlns="http://www.w3.org/2000/svg">
<path fill-rule="evenodd" clip-rule="evenodd" d="M198.035 359.982C196.481 359.672 194.928 359.361 193.374 359.361C193.374 358.739 193.374 358.429 193.374 358.118C195.86 356.564 198.657 355.321 201.454 354.078C216.103 344.232 228.316 335.61 239.753 324.371C255.771 309.615 271.19 292.813 278.185 272.957C280.36 261.769 277.593 255.253 268.269 249.037C261.743 247.173 255.528 245.619 249.312 244.065C249.001 243.754 248.691 243.444 248.691 243.133C268.827 239.696 302.32 230.856 327.065 235.339C346.799 238.914 357.073 250.822 349.125 271.091C346.417 277.995 341.72 284.433 336.354 290.535C329.326 298.523 320.773 305.845 311.416 313.006C293.427 326.775 275.824 337.712 254.794 346.422C241.812 351.801 228.454 355.931 213.625 358.321C208.62 359.127 203.477 359.706 198.035 359.982Z" fill="white" stroke="white" stroke-width="0.7999" stroke-linecap="round" stroke-linejoin="round"/>
<path fill-rule="evenodd" clip-rule="evenodd" d="M216.992 321.757C213.778 320.512 212.765 319.581 212.019 318.65C200.832 302.8 204.25 277.007 206.736 258.671C210.835 235.652 217.747 214.845 226.743 194.547C233.948 178.287 241.714 163.372 252.222 149.093C256.188 143.707 260.208 138.363 264.229 133.12C261.898 138.714 259.567 144.386 257.237 150.096C249.454 169.173 243.804 188.246 239.521 208.485C233.272 238.023 230.865 270.68 248.069 287.884C247.758 288.816 247.758 289.748 247.758 290.991C240.098 303.759 233.421 319.411 216.992 321.757Z" fill="white" stroke="white" stroke-width="0.7999" stroke-linecap="round" stroke-linejoin="round"/>
<path fill-rule="evenodd" clip-rule="evenodd" d="M100.342 288.871C100.412 279.492 100.097 274.529 100.468 262.255C100.468 173.518 172.842 101.144 261.579 101.144C300.729 101.992 310.88 109.822 345.421 126.552C336.414 112.215 297.708 91.1161 256.113 91.1161C167.376 91.1161 95.5002 161.585 95.0021 252.227C94.9166 267.805 97.4786 285.737 100.342 288.871Z" fill="white" stroke="white" stroke-width="0.7999" stroke-linecap="round" stroke-linejoin="round"/>
<path fill-rule="evenodd" clip-rule="evenodd" d="M411.658 222.138C411.588 231.516 411.903 236.48 411.532 248.754C411.532 337.491 339.158 409.865 250.421 409.865C211.271 409.017 201.12 401.187 166.579 384.457C175.587 398.794 214.292 419.893 255.887 419.893C344.624 419.893 416.5 349.424 416.998 258.782C417.084 243.204 414.522 225.272 411.658 222.138Z" fill="white" stroke="white" stroke-width="0.7999" stroke-linecap="round" stroke-linejoin="round"/>
</svg>
